<svg width="30" height="30" viewBox="0 0 30 30" fill="none" xmlns="http://www.w3.org/2000/svg">
<path d="M28.5 16.5H1.5C1.10218 16.5 0.720645 16.3419 0.439339 16.0606C0.158035 15.7794 0 15.3978 0 15C0 14.6022 0.158035 14.2206 0.439339 13.9393C0.720645 13.658 1.10218 13.5 1.5 13.5H28.5C28.8978 13.5 29.2794 13.658 29.5606 13.9393C29.8419 14.2206 30 14.6022 30 15C30 15.3978 29.8419 15.7794 29.5606 16.0606C29.2794 16.3419 28.8978 16.5 28.5 16.5ZM28.5 6H1.5C1.10218 6 0.720645 5.84196 0.439339 5.56066C0.158035 5.27935 0 4.89783 0 4.5C0 4.10217 0.158035 3.72065 0.439339 3.43934C0.720645 3.15804 1.10218 3 1.5 3H28.5C28.8978 3 29.2794 3.15804 29.5606 3.43934C29.8419 3.72065 30 4.10217 30 4.5C30 4.89783 29.8419 5.27935 29.5606 5.56066C29.2794 5.84196 28.8978 6 28.5 6ZM28.5 27H1.5C1.10218 27 0.720645 26.8419 0.439339 26.5606C0.158035 26.2794 0 25.8978 0 25.5C0 25.1022 0.158035 24.7206 0.439339 24.4394C0.720645 24.1581 1.10218 24 1.5 24H28.5C28.8978 24 29.2794 24.1581 29.5606 24.4394C29.8419 24.7206 30 25.1022 30 25.5C30 25.8978 29.8419 26.2794 29.5606 26.5606C29.2794 26.8419 28.8978 27 28.5 27Z" fill="black"/>
</svg>
